<mxfile host="Electron" modified="2023-12-23T09:53:34.968Z" agent="Mozilla/5.0 (Windows NT 10.0; Win64; x64) AppleWebKit/537.36 (KHTML, like Gecko) draw.io/22.1.2 Chrome/114.0.5735.289 Electron/25.9.4 Safari/537.36" etag="BWFN7kaGKQdkaPV0K48j" version="22.1.2" type="device">
  <diagram name="第 1 页" id="YMeDH7eI7Ci8K5Gj1CDd">
    <mxGraphModel dx="1430" dy="826" grid="1" gridSize="10" guides="1" tooltips="1" connect="1" arrows="1" fold="1" page="1" pageScale="1" pageWidth="827" pageHeight="1169" math="0" shadow="0">
      <root>
        <mxCell id="0" />
        <mxCell id="1" parent="0" />
        <mxCell id="DhodaTUiZ3Sy2DOUn73H-46" value="" style="rounded=0;whiteSpace=wrap;html=1;" vertex="1" parent="1">
          <mxGeometry x="310" y="360" width="160" height="390" as="geometry" />
        </mxCell>
        <mxCell id="DhodaTUiZ3Sy2DOUn73H-45" value="&lt;b&gt;Worker1&lt;/b&gt;" style="text;html=1;align=center;verticalAlign=middle;resizable=0;points=[];autosize=1;strokeColor=none;fillColor=none;" vertex="1" parent="1">
          <mxGeometry x="303.5" y="360" width="70" height="30" as="geometry" />
        </mxCell>
        <mxCell id="DhodaTUiZ3Sy2DOUn73H-43" value="" style="rounded=0;whiteSpace=wrap;html=1;" vertex="1" parent="1">
          <mxGeometry x="707" y="360" width="163" height="390" as="geometry" />
        </mxCell>
        <mxCell id="DhodaTUiZ3Sy2DOUn73H-3" value="" style="edgeStyle=orthogonalEdgeStyle;rounded=0;orthogonalLoop=1;jettySize=auto;html=1;" edge="1" parent="1" source="DhodaTUiZ3Sy2DOUn73H-1" target="DhodaTUiZ3Sy2DOUn73H-2">
          <mxGeometry relative="1" as="geometry" />
        </mxCell>
        <mxCell id="DhodaTUiZ3Sy2DOUn73H-1" value="无任务" style="rounded=0;whiteSpace=wrap;html=1;fillColor=#fff2cc;strokeColor=#d6b656;" vertex="1" parent="1">
          <mxGeometry x="730" y="390" width="120" height="60" as="geometry" />
        </mxCell>
        <mxCell id="DhodaTUiZ3Sy2DOUn73H-16" value="" style="edgeStyle=orthogonalEdgeStyle;rounded=0;orthogonalLoop=1;jettySize=auto;html=1;" edge="1" parent="1" source="DhodaTUiZ3Sy2DOUn73H-2" target="DhodaTUiZ3Sy2DOUn73H-15">
          <mxGeometry relative="1" as="geometry" />
        </mxCell>
        <mxCell id="DhodaTUiZ3Sy2DOUn73H-2" value="执行Map任务" style="whiteSpace=wrap;html=1;rounded=0;fillColor=#d5e8d4;strokeColor=#82b366;" vertex="1" parent="1">
          <mxGeometry x="730" y="540" width="120" height="60" as="geometry" />
        </mxCell>
        <mxCell id="DhodaTUiZ3Sy2DOUn73H-4" value="&lt;b&gt;Coordinator&lt;/b&gt;&lt;br&gt;记录Task的分配情况&lt;br&gt;无需记录连接的Worker信息" style="rounded=0;whiteSpace=wrap;html=1;fillColor=#f8cecc;strokeColor=#b85450;" vertex="1" parent="1">
          <mxGeometry x="520" y="360" width="130" height="390" as="geometry" />
        </mxCell>
        <mxCell id="DhodaTUiZ3Sy2DOUn73H-5" value="" style="endArrow=classic;html=1;rounded=0;exitX=0;exitY=0.5;exitDx=0;exitDy=0;entryX=1;entryY=0.25;entryDx=0;entryDy=0;" edge="1" parent="1" source="DhodaTUiZ3Sy2DOUn73H-1" target="DhodaTUiZ3Sy2DOUn73H-4">
          <mxGeometry width="50" height="50" relative="1" as="geometry">
            <mxPoint x="840" y="580" as="sourcePoint" />
            <mxPoint x="890" y="530" as="targetPoint" />
          </mxGeometry>
        </mxCell>
        <mxCell id="DhodaTUiZ3Sy2DOUn73H-6" value="Text" style="edgeLabel;html=1;align=center;verticalAlign=middle;resizable=0;points=[];" vertex="1" connectable="0" parent="DhodaTUiZ3Sy2DOUn73H-5">
          <mxGeometry x="-0.0373" relative="1" as="geometry">
            <mxPoint as="offset" />
          </mxGeometry>
        </mxCell>
        <mxCell id="DhodaTUiZ3Sy2DOUn73H-7" value="AskForTask&lt;br&gt;询问任务" style="edgeLabel;html=1;align=center;verticalAlign=middle;resizable=0;points=[];" vertex="1" connectable="0" parent="DhodaTUiZ3Sy2DOUn73H-5">
          <mxGeometry x="-0.0484" y="-4" relative="1" as="geometry">
            <mxPoint as="offset" />
          </mxGeometry>
        </mxCell>
        <mxCell id="DhodaTUiZ3Sy2DOUn73H-8" value="" style="endArrow=classic;html=1;rounded=0;exitX=1;exitY=0.25;exitDx=0;exitDy=0;entryX=0;entryY=0.5;entryDx=0;entryDy=0;" edge="1" parent="1" source="DhodaTUiZ3Sy2DOUn73H-4" target="DhodaTUiZ3Sy2DOUn73H-2">
          <mxGeometry width="50" height="50" relative="1" as="geometry">
            <mxPoint x="740" y="430" as="sourcePoint" />
            <mxPoint x="540" y="530" as="targetPoint" />
          </mxGeometry>
        </mxCell>
        <mxCell id="DhodaTUiZ3Sy2DOUn73H-9" value="Text" style="edgeLabel;html=1;align=center;verticalAlign=middle;resizable=0;points=[];" vertex="1" connectable="0" parent="DhodaTUiZ3Sy2DOUn73H-8">
          <mxGeometry x="-0.0373" relative="1" as="geometry">
            <mxPoint as="offset" />
          </mxGeometry>
        </mxCell>
        <mxCell id="DhodaTUiZ3Sy2DOUn73H-10" value="返回Map任务" style="edgeLabel;html=1;align=center;verticalAlign=middle;resizable=0;points=[];" vertex="1" connectable="0" parent="DhodaTUiZ3Sy2DOUn73H-8">
          <mxGeometry x="-0.0484" y="-4" relative="1" as="geometry">
            <mxPoint as="offset" />
          </mxGeometry>
        </mxCell>
        <mxCell id="DhodaTUiZ3Sy2DOUn73H-15" value="执行Reduce任务" style="whiteSpace=wrap;html=1;rounded=0;fillColor=#dae8fc;strokeColor=#6c8ebf;" vertex="1" parent="1">
          <mxGeometry x="730" y="680" width="120" height="60" as="geometry" />
        </mxCell>
        <mxCell id="DhodaTUiZ3Sy2DOUn73H-19" value="" style="endArrow=classic;html=1;rounded=0;exitX=0;exitY=0.5;exitDx=0;exitDy=0;entryX=1;entryY=0.75;entryDx=0;entryDy=0;" edge="1" parent="1" target="DhodaTUiZ3Sy2DOUn73H-4" source="DhodaTUiZ3Sy2DOUn73H-2">
          <mxGeometry width="50" height="50" relative="1" as="geometry">
            <mxPoint x="760" y="570" as="sourcePoint" />
            <mxPoint x="640" y="630" as="targetPoint" />
          </mxGeometry>
        </mxCell>
        <mxCell id="DhodaTUiZ3Sy2DOUn73H-20" value="Text" style="edgeLabel;html=1;align=center;verticalAlign=middle;resizable=0;points=[];" vertex="1" connectable="0" parent="DhodaTUiZ3Sy2DOUn73H-19">
          <mxGeometry x="-0.0373" relative="1" as="geometry">
            <mxPoint as="offset" />
          </mxGeometry>
        </mxCell>
        <mxCell id="DhodaTUiZ3Sy2DOUn73H-21" value="AskForTask&lt;br&gt;询问任务" style="edgeLabel;html=1;align=center;verticalAlign=middle;resizable=0;points=[];" vertex="1" connectable="0" parent="DhodaTUiZ3Sy2DOUn73H-19">
          <mxGeometry x="-0.0484" y="-4" relative="1" as="geometry">
            <mxPoint as="offset" />
          </mxGeometry>
        </mxCell>
        <mxCell id="DhodaTUiZ3Sy2DOUn73H-22" value="" style="endArrow=classic;html=1;rounded=0;exitX=1;exitY=0.75;exitDx=0;exitDy=0;entryX=0;entryY=0.5;entryDx=0;entryDy=0;" edge="1" parent="1" source="DhodaTUiZ3Sy2DOUn73H-4" target="DhodaTUiZ3Sy2DOUn73H-15">
          <mxGeometry width="50" height="50" relative="1" as="geometry">
            <mxPoint x="640" y="630" as="sourcePoint" />
            <mxPoint x="760" y="710" as="targetPoint" />
          </mxGeometry>
        </mxCell>
        <mxCell id="DhodaTUiZ3Sy2DOUn73H-24" value="返回Reduce任务" style="edgeLabel;html=1;align=center;verticalAlign=middle;resizable=0;points=[];" vertex="1" connectable="0" parent="DhodaTUiZ3Sy2DOUn73H-22">
          <mxGeometry x="-0.0484" y="-4" relative="1" as="geometry">
            <mxPoint y="-3" as="offset" />
          </mxGeometry>
        </mxCell>
        <mxCell id="DhodaTUiZ3Sy2DOUn73H-26" value="" style="edgeStyle=orthogonalEdgeStyle;rounded=0;orthogonalLoop=1;jettySize=auto;html=1;" edge="1" source="DhodaTUiZ3Sy2DOUn73H-27" target="DhodaTUiZ3Sy2DOUn73H-29" parent="1">
          <mxGeometry relative="1" as="geometry" />
        </mxCell>
        <mxCell id="DhodaTUiZ3Sy2DOUn73H-27" value="无任务" style="rounded=0;whiteSpace=wrap;html=1;fillColor=#fff2cc;strokeColor=#d6b656;" vertex="1" parent="1">
          <mxGeometry x="330" y="390" width="120" height="60" as="geometry" />
        </mxCell>
        <mxCell id="DhodaTUiZ3Sy2DOUn73H-28" value="" style="edgeStyle=orthogonalEdgeStyle;rounded=0;orthogonalLoop=1;jettySize=auto;html=1;" edge="1" source="DhodaTUiZ3Sy2DOUn73H-29" target="DhodaTUiZ3Sy2DOUn73H-30" parent="1">
          <mxGeometry relative="1" as="geometry" />
        </mxCell>
        <mxCell id="DhodaTUiZ3Sy2DOUn73H-29" value="执行Map任务" style="whiteSpace=wrap;html=1;rounded=0;fillColor=#d5e8d4;strokeColor=#82b366;" vertex="1" parent="1">
          <mxGeometry x="330" y="540" width="120" height="60" as="geometry" />
        </mxCell>
        <mxCell id="DhodaTUiZ3Sy2DOUn73H-30" value="执行Reduce任务" style="whiteSpace=wrap;html=1;rounded=0;fillColor=#dae8fc;strokeColor=#6c8ebf;" vertex="1" parent="1">
          <mxGeometry x="330" y="680" width="120" height="60" as="geometry" />
        </mxCell>
        <mxCell id="DhodaTUiZ3Sy2DOUn73H-31" value="" style="endArrow=classic;html=1;rounded=0;exitX=1;exitY=0.5;exitDx=0;exitDy=0;entryX=0;entryY=0.25;entryDx=0;entryDy=0;" edge="1" parent="1" source="DhodaTUiZ3Sy2DOUn73H-27" target="DhodaTUiZ3Sy2DOUn73H-4">
          <mxGeometry width="50" height="50" relative="1" as="geometry">
            <mxPoint x="740" y="430" as="sourcePoint" />
            <mxPoint x="650" y="500" as="targetPoint" />
          </mxGeometry>
        </mxCell>
        <mxCell id="DhodaTUiZ3Sy2DOUn73H-32" value="Text" style="edgeLabel;html=1;align=center;verticalAlign=middle;resizable=0;points=[];" vertex="1" connectable="0" parent="DhodaTUiZ3Sy2DOUn73H-31">
          <mxGeometry x="-0.0373" relative="1" as="geometry">
            <mxPoint as="offset" />
          </mxGeometry>
        </mxCell>
        <mxCell id="DhodaTUiZ3Sy2DOUn73H-33" value="AskForTask&lt;br&gt;询问任务" style="edgeLabel;html=1;align=center;verticalAlign=middle;resizable=0;points=[];" vertex="1" connectable="0" parent="DhodaTUiZ3Sy2DOUn73H-31">
          <mxGeometry x="-0.0484" y="-4" relative="1" as="geometry">
            <mxPoint as="offset" />
          </mxGeometry>
        </mxCell>
        <mxCell id="DhodaTUiZ3Sy2DOUn73H-34" value="" style="endArrow=classic;html=1;rounded=0;exitX=1;exitY=0.5;exitDx=0;exitDy=0;entryX=0;entryY=0.25;entryDx=0;entryDy=0;" edge="1" parent="1" source="DhodaTUiZ3Sy2DOUn73H-29" target="DhodaTUiZ3Sy2DOUn73H-4">
          <mxGeometry width="50" height="50" relative="1" as="geometry">
            <mxPoint x="650" y="500" as="sourcePoint" />
            <mxPoint x="740" y="580" as="targetPoint" />
          </mxGeometry>
        </mxCell>
        <mxCell id="DhodaTUiZ3Sy2DOUn73H-35" value="Text" style="edgeLabel;html=1;align=center;verticalAlign=middle;resizable=0;points=[];" vertex="1" connectable="0" parent="DhodaTUiZ3Sy2DOUn73H-34">
          <mxGeometry x="-0.0373" relative="1" as="geometry">
            <mxPoint as="offset" />
          </mxGeometry>
        </mxCell>
        <mxCell id="DhodaTUiZ3Sy2DOUn73H-36" value="返回Map任务" style="edgeLabel;html=1;align=center;verticalAlign=middle;resizable=0;points=[];" vertex="1" connectable="0" parent="DhodaTUiZ3Sy2DOUn73H-34">
          <mxGeometry x="-0.0484" y="-4" relative="1" as="geometry">
            <mxPoint as="offset" />
          </mxGeometry>
        </mxCell>
        <mxCell id="DhodaTUiZ3Sy2DOUn73H-37" value="" style="endArrow=classic;html=1;rounded=0;exitX=1;exitY=0.5;exitDx=0;exitDy=0;entryX=0;entryY=0.75;entryDx=0;entryDy=0;" edge="1" parent="1" source="DhodaTUiZ3Sy2DOUn73H-29" target="DhodaTUiZ3Sy2DOUn73H-4">
          <mxGeometry width="50" height="50" relative="1" as="geometry">
            <mxPoint x="740" y="580" as="sourcePoint" />
            <mxPoint x="520" y="630" as="targetPoint" />
          </mxGeometry>
        </mxCell>
        <mxCell id="DhodaTUiZ3Sy2DOUn73H-38" value="Text" style="edgeLabel;html=1;align=center;verticalAlign=middle;resizable=0;points=[];" vertex="1" connectable="0" parent="DhodaTUiZ3Sy2DOUn73H-37">
          <mxGeometry x="-0.0373" relative="1" as="geometry">
            <mxPoint as="offset" />
          </mxGeometry>
        </mxCell>
        <mxCell id="DhodaTUiZ3Sy2DOUn73H-39" value="AskForTask&lt;br&gt;询问任务" style="edgeLabel;html=1;align=center;verticalAlign=middle;resizable=0;points=[];" vertex="1" connectable="0" parent="DhodaTUiZ3Sy2DOUn73H-37">
          <mxGeometry x="-0.0484" y="-4" relative="1" as="geometry">
            <mxPoint as="offset" />
          </mxGeometry>
        </mxCell>
        <mxCell id="DhodaTUiZ3Sy2DOUn73H-40" value="" style="endArrow=classic;html=1;rounded=0;exitX=1;exitY=0.5;exitDx=0;exitDy=0;entryX=0;entryY=0.75;entryDx=0;entryDy=0;" edge="1" parent="1" source="DhodaTUiZ3Sy2DOUn73H-30" target="DhodaTUiZ3Sy2DOUn73H-4">
          <mxGeometry width="50" height="50" relative="1" as="geometry">
            <mxPoint x="650" y="640" as="sourcePoint" />
            <mxPoint x="520" y="630" as="targetPoint" />
          </mxGeometry>
        </mxCell>
        <mxCell id="DhodaTUiZ3Sy2DOUn73H-41" value="Text" style="edgeLabel;html=1;align=center;verticalAlign=middle;resizable=0;points=[];" vertex="1" connectable="0" parent="DhodaTUiZ3Sy2DOUn73H-40">
          <mxGeometry x="-0.0373" relative="1" as="geometry">
            <mxPoint as="offset" />
          </mxGeometry>
        </mxCell>
        <mxCell id="DhodaTUiZ3Sy2DOUn73H-42" value="返回Reduce任务" style="edgeLabel;html=1;align=center;verticalAlign=middle;resizable=0;points=[];" vertex="1" connectable="0" parent="DhodaTUiZ3Sy2DOUn73H-40">
          <mxGeometry x="-0.0484" y="-4" relative="1" as="geometry">
            <mxPoint as="offset" />
          </mxGeometry>
        </mxCell>
        <mxCell id="DhodaTUiZ3Sy2DOUn73H-44" value="&lt;b&gt;Worker2&lt;/b&gt;" style="text;html=1;align=center;verticalAlign=middle;resizable=0;points=[];autosize=1;strokeColor=none;fillColor=none;" vertex="1" parent="1">
          <mxGeometry x="707" y="360" width="70" height="30" as="geometry" />
        </mxCell>
      </root>
    </mxGraphModel>
  </diagram>
</mxfile>
